HIERARCHY
ROOT root
{
	OFFSET 0.000000 0.000000 0.000000
	CHANNELS 6 Xposition Yposition Zposition Zrotation Yrotation Xrotation
	JOINT lhip
	{
		OFFSET 0.058581 -0.082280 -0.017664
		CHANNELS 3 Zrotation Yrotation Xrotation
		JOINT lknee
		{
			OFFSET 0.043451 -0.386469 0.008037
			CHANNELS 3 Zrotation Yrotation Xrotation
			JOINT lankle
			{
				OFFSET -0.014790 -0.426874 -0.037428
				CHANNELS 3 Zrotation Yrotation Xrotation
				JOINT ltoe
				{
					OFFSET 0.041054 -0.060286 0.122042
					CHANNELS 3 Zrotation Yrotation Xrotation
					End Site
					{
						OFFSET 0.000000 0.000000 0.000000
					}
				}
			}
		}
	}
	JOINT rhip
	{
		OFFSET -0.060310 -0.090513 -0.013543
		CHANNELS 3 Zrotation Yrotation Xrotation
		JOINT rknee
		{
			OFFSET -0.043257 -0.383688 -0.004843
			CHANNELS 3 Zrotation Yrotation Xrotation
			JOINT rankle
			{
				OFFSET 0.019056 -0.420046 -0.034562
				CHANNELS 3 Zrotation Yrotation Xrotation
				JOINT rtoe
				{
					OFFSET -0.034840 -0.062106 0.130323
					CHANNELS 3 Zrotation Yrotation Xrotation
					End Site
					{
						OFFSET 0.000000 0.000000 0.000000
					}
				}
			}
		}
	}
	JOINT lowerback
	{
		OFFSET 0.004439 0.124404 -0.038385
		CHANNELS 3 Zrotation Yrotation Xrotation
		JOINT upperback
		{
			OFFSET 0.004488 0.137956 0.026820
			CHANNELS 3 Zrotation Yrotation Xrotation
			JOINT chest
			{
				OFFSET -0.002265 0.056032 0.002855
				CHANNELS 3 Zrotation Yrotation Xrotation
				JOINT lowerneck
				{
					OFFSET -0.013390 0.211636 -0.033468
					CHANNELS 3 Zrotation Yrotation Xrotation
					JOINT upperneck
					{
						OFFSET 0.010113 0.088937 0.050410
						CHANNELS 3 Zrotation Yrotation Xrotation
						End Site
						{
							OFFSET 0.000000 0.000000 0.000000
						}
					}
				}
				JOINT lclavicle
				{
					OFFSET 0.071702 0.114000 -0.018898
					CHANNELS 3 Zrotation Yrotation Xrotation
					JOINT lshoulder
					{
						OFFSET 0.122921 0.045205 -0.019046
						CHANNELS 3 Zrotation Yrotation Xrotation
						JOINT lelbow
						{
							OFFSET 0.255332 -0.015649 -0.022946
							CHANNELS 3 Zrotation Yrotation Xrotation
							JOINT lwrist
							{
								OFFSET 0.265709 0.012698 -0.007375
								CHANNELS 3 Zrotation Yrotation Xrotation
								End Site
								{
									OFFSET 0.000000 0.000000 0.000000
								}
							}
						}
					}
				}
				JOINT rclavicle
				{
					OFFSET -0.082954 0.112472 -0.023707
					CHANNELS 3 Zrotation Yrotation Xrotation
					JOINT rshoulder
					{
						OFFSET -0.113228 0.046853 -0.008472
						CHANNELS 3 Zrotation Yrotation Xrotation
						JOINT relbow
						{
							OFFSET -0.260127 -0.014369 -0.031269
							CHANNELS 3 Zrotation Yrotation Xrotation
							JOINT rwrist
							{
								OFFSET -0.269108 0.006794 -0.006027
								CHANNELS 3 Zrotation Yrotation Xrotation
								End Site
								{
									OFFSET 0.000000 0.000000 0.000000
								}
							}
						}
					}
				}
			}
		}
	}
}
MOTION
Frames: 5
Frame Time: 0.033333
0.070516 0.245301 0.933865 95.864719 -1.642545 71.321500 9.631660 5.694954 -0.165600 -14.928592 -1.232031 45.513312 -1.379309 10.867865 -29.413449 0.000000 -0.000000 0.000000 -16.671128 -12.912782 -2.964603 8.070556 -7.366264 49.497640 1.885924 -8.024582 -25.416749 0.000000 -0.000000 0.000000 5.214139 4.487648 25.665034 2.593773 2.576658 18.537503 1.519252 5.001968 -1.525570 -7.714532 13.291066 -7.399980 -3.456628 7.927608 -6.236435 -20.895447 -7.220907 -5.511304 -9.809205 2.208501 0.445243 4.124318 -67.470875 0.609215 -16.569711 -20.260651 -14.418577 28.131503 16.529403 8.137701 9.777357 3.423838 3.111778 -5.272064 76.335985 -9.953441 24.050487 19.577370 -27.425091 
0.072169 0.243399 0.934357 95.843007 -1.561962 71.044031 9.779949 5.484350 0.315642 -14.925587 -1.448492 45.339542 -1.498828 11.027750 -29.442030 0.000000 -0.000000 0.000000 -16.374067 -12.779110 -2.480759 7.876218 -7.312198 49.360575 1.876527 -8.121897 -25.573917 0.000000 -0.000000 0.000000 4.684467 4.645070 25.484899 2.478731 2.323356 18.742040 1.471747 4.937796 -1.562067 -7.854616 13.677043 -7.637180 -3.297780 7.542694 -6.145082 -21.055478 -7.714415 -5.744951 -8.810308 1.412202 -0.190348 5.758897 -66.937979 -1.475566 -17.378564 -19.293519 -13.299596 28.837613 16.328100 8.255648 10.438895 2.968736 3.318691 -5.723622 74.702783 -10.029922 24.397530 18.434819 -26.222036 
0.073673 0.241416 0.934840 95.668755 -1.431937 70.895830 9.952013 5.418555 0.664125 -14.732973 -1.617144 45.193874 -1.549367 11.101338 -29.440677 0.000000 -0.000000 0.000000 -15.905375 -12.576641 -2.153690 7.725983 -7.197657 49.106338 1.846726 -8.359494 -25.619203 0.000000 -0.000000 0.000000 4.295558 4.745259 25.283247 2.353259 2.176472 18.730901 1.350044 4.814304 -1.503411 -7.930603 13.789551 -7.844351 -3.107091 7.017090 -6.124963 -20.879424 -8.183804 -5.775485 -8.061651 0.458491 -0.848747 6.598352 -65.901234 -2.187912 -17.414205 -19.140329 -12.723549 29.246252 16.123371 8.316199 11.347291 2.720742 3.461788 -5.415049 72.613354 -9.100191 24.238952 18.249092 -25.407126 
0.075270 0.239535 0.935701 95.399790 -1.311864 70.622333 10.133718 5.490015 1.244549 -14.601907 -2.008509 44.901183 -1.685719 11.278515 -29.411880 0.000000 -0.000000 0.000000 -15.545110 -12.473946 -1.662668 7.631416 -7.012681 48.746011 1.844104 -8.445925 -25.582024 0.000000 -0.000000 0.000000 3.934661 4.859074 25.236844 2.251957 1.989752 18.899630 1.217782 4.625276 -1.590037 -7.932340 13.885753 -8.210063 -2.820066 6.335973 -6.215187 -20.787074 -8.755781 -5.908282 -6.959394 -0.189063 -1.401310 6.632367 -64.859043 -2.526078 -17.911491 -18.851648 -11.932051 29.697260 16.006467 8.298955 12.012147 2.442417 3.533309 -5.231622 70.765926 -8.662157 24.385959 17.751832 -24.531148 
0.076285 0.237869 0.936565 95.143421 -1.263781 70.555280 10.204131 5.349310 1.559985 -14.428530 -2.064782 44.580543 -1.780314 11.378144 -29.377713 0.000000 -0.000000 0.000000 -15.277447 -12.420672 -1.415049 7.638712 -6.844121 48.361493 1.862297 -8.559948 -25.482241 0.000000 -0.000000 0.000000 3.456126 4.994025 25.015539 2.207768 1.705243 19.007000 1.130686 4.478483 -1.624929 -7.886615 13.827640 -8.531386 -2.530559 5.621754 -6.265118 -20.617173 -9.135644 -6.163374 -6.174043 -1.103762 -1.925987 6.546465 -63.548354 -2.556207 -18.382772 -18.801214 -11.372427 30.026649 15.822766 8.228828 12.646208 2.301345 3.660834 -5.630353 68.989610 -8.532319 24.717585 17.243786 -23.525271 
